<?xml version="1.0" encoding="utf-8"?>
<!-- Generator: Adobe Illustrator 21.0.2, SVG Export Plug-In . SVG Version: 6.00 Build 0)  -->
<svg version="1.1" id="Слой_1" xmlns="http://www.w3.org/2000/svg" xmlns:xlink="http://www.w3.org/1999/xlink" x="0px" y="0px"
	 viewBox="0 0 789.1 81.5" style="enable-background:new 0 0 789.1 81.5;" xml:space="preserve">
<g>
	<path d="M16.6,51.7v28.7H37V56.6h15.8l13,23.8h22.1L73.8,55.5c4.5-1.1,7.8-3.4,9.8-6.8h23.5l-9.5,3v28.7h63.9V64.5H118V48.7h35.2
		V35.1H118V17h42.5V1.1H97.6v34H86.8c0-0.4,0-0.7,0-1.1V23.8c0-7.9-1.8-13.7-5.4-17.3c-3.6-3.6-9.3-5.4-17.3-5.4H16.6v34H0.1v13.6
		h26L16.6,51.7z M37,17h22.6c4.5,0,6.8,2.3,6.8,6.8V34c0,4.5-2.3,6.8-6.8,6.8H37V17z"/>
	<path d="M772.7,35.1L772.7,35.1l-35.1,0v0h-4.8v13.6h29l-9.6,3l0,13.4c-7.2,0.4-15.1,0.6-23.8,0.6c-1.7,0-3.1-0.5-4.1-1.5
		c-1-1-1.5-2.4-1.5-4.1V23.8c0-4.5,2.3-6.8,6.8-6.8h36.2V1.1h-40.8c-7.9,0-13.7,1.8-17.3,5.4c-3.6,3.6-5.4,9.3-5.4,17.3v11.3h-8
		V22.6c0-7.9-1.8-13.7-5.4-17.3c-3.6-3.6-9.3-5.4-17.3-5.4h-28.3c-7.9,0-13.7,1.8-17.3,5.4c-3.6,3.6-5.4,9.3-5.4,17.3v12.5h-8.1
		v-7.9c0-8.5-2.2-15-6.6-19.4c-4.4-4.4-10.9-6.6-19.4-6.6h-44.2v34H510v-7.9c0-8.5-2.2-15-6.6-19.4C499,3.3,492.5,1.1,484,1.1h-44.2
		v34h-13.2v-34h-20.4v47.5L379,1.1h-21.5v34h-23.2l-12.9-34h-22.6l-12.9,34l-39,0v-7.9c0-8.5-2.2-15-6.6-19.4
		C236,3.3,229.5,1.1,221,1.1h-44.2v34h-11v13.6h11h9.5l-9.5,3v28.7H221c8.5,0,15-2.2,19.4-6.6c4.4-4.4,6.6-10.9,6.6-19.4v-5.7h43.4
		l-10.8,3.4l-10.7,28.3h22.1l5.1-14.2h28.3l5.1,14.2h22.1l-12-31.7h27.6l-9.6,3v28.7h20.4V32.8l27.2,47.5h21.5V48.7h22.8l-9.6,3
		v28.7H484c8.5,0,15-2.2,19.4-6.6c4.4-4.4,6.6-10.9,6.6-19.4v-5.7h42.1l-9.6,3V55v0v25.3h44.2c8.5,0,15-2.2,19.4-6.6
		c4.4-4.4,6.6-10.9,6.6-19.4v-5.7h17.6l-9.5,3v7.2c0,7.9,1.8,13.7,5.4,17.3c3.6,3.6,9.3,5.4,17.3,5.4h28.3c7.9,0,13.7-1.8,17.3-5.4
		c3.6-3.6,5.4-9.3,5.4-17.3V48.7H712l-9.6,3V60c0,7.4,1.7,12.8,5.2,16.3c3.5,3.5,8.9,5.2,16.3,5.2c14.8,0,31-0.9,48.7-2.8v-30h16.4
		V35.1H772.7z M197.2,17h19.2c6.8,0,10.2,3.4,10.2,10.2v7.9h-29.4V17z M226.6,51.6v2.8c0,6.8-3.4,10.2-10.2,10.2h-19.2V48.7h29.1
		h9.5L226.6,51.6z M301.1,51.5l9.1-26.6l9.1,26.6H301.1z M460.2,17h19.2c6.8,0,10.2,3.4,10.2,10.2v7.9h-29.4V17z M489.7,51.7l0,2.7
		c0,6.8-3.4,10.2-10.2,10.2h-19.2V48.7h39L489.7,51.7z M592.4,54.3c0,6.8-3.4,10.2-10.2,10.2h-19.2V48.7l14.7,0V35.1h-14.7V17h19.2
		c6.8,0,10.2,3.4,10.2,10.2V54.3z M641.2,22.6c0-4.5,2.3-6.8,6.8-6.8h19.2c4.5,0,6.8,2.3,6.8,6.8v12.5h-32.8V22.6z M674.1,51.7v7.2
		c0,4.5-2.3,6.8-6.8,6.8H648c-4.5,0-6.8-2.3-6.8-6.8V48.7h42.3L674.1,51.7z"/>
</g>
</svg>
